<?xml version="1.0" encoding="UTF-8"?> <svg xmlns="http://www.w3.org/2000/svg" width="688" height="110" viewBox="0 0 688 110" fill="none"><path d="M13.1367 68.4963L12.32 69.8963L12.2967 69.8497L11.48 68.4497L1.09656 50.4361L1.91323 49.0361L12.2967 67.0496L13.1133 68.4497L13.1367 68.4963Z" fill="url(#paint0_linear_168_206)"></path><path d="M86.4741 58.6496L86.4274 58.5796V58.6262H86.4041L86.4507 58.6962L87.2207 60.0262V59.9796L86.4507 58.6496H86.4741ZM89.6708 53.1428L89.6241 53.0495L89.5774 53.1195L89.6241 53.2128L90.3708 54.5195L90.4174 54.4495L89.6708 53.1428ZM87.2441 31.606L86.4274 33.006L87.2441 31.6293V31.606Z" fill="#FF8119"></path><path d="M77.2107 60.0267L63.9105 83.1036H26.1802L4.64331 45.7933L26.1802 8.48291H57.4471L60.1538 13.173H28.8869L10.0567 45.7933L28.8869 78.4136H66.5472L77.1873 59.9801L77.2107 60.0267Z" fill="url(#paint1_linear_168_206)"></path><path d="M80.6873 63.2693L80.7106 63.2927L79.8939 64.6927V64.6694L77.2106 60.026L78.0272 58.626L80.6873 63.2693Z" fill="url(#paint2_linear_168_206)"></path><path d="M136.735 85.7164L135.918 87.1165H92.8445L92.6578 86.7665L82.2043 68.6829L81.411 67.3063L82.2277 65.9062L83.021 67.2829L93.6611 85.7164H136.735Z" fill="url(#paint3_linear_168_206)"></path><path d="M140.561 4.46899L139.744 5.86901H93.6606L83.0205 24.3025L82.2039 22.9025L92.844 4.46899H140.561Z" fill="url(#paint4_linear_168_206)"></path><path d="M80.734 28.3864L78.0273 33.0765L78.004 33.0065L77.1873 31.6065L66.5472 13.1729H60.1538L57.4471 8.48291H69.2539L79.894 26.9164L80.7107 28.3164L80.734 28.3864Z" fill="url(#paint5_linear_168_206)"></path><path d="M82.204 68.683L71.5639 87.1165H24.3601L25.1534 85.7165H70.7706L79.684 70.2697L81.4107 67.283V67.3063L82.204 68.683Z" fill="url(#paint6_linear_168_206)"></path><path d="M83.0443 24.3495L82.2509 25.7495L82.2043 25.7028L81.4109 24.3028L71.0042 6.2893L71.8208 4.88928L82.2043 22.9028L83.0209 24.3028L83.0443 24.3495Z" fill="url(#paint7_linear_168_206)"></path><path d="M154.748 29.2961L153.955 30.7194L153.908 30.6494L153.115 29.2494L142.731 11.2593L143.525 9.85925L153.908 27.8494L154.748 29.2961Z" fill="url(#paint8_linear_168_206)"></path><path d="M106.891 83.1029H95.1776L83.7441 63.316L86.4275 58.696L86.4042 58.626L86.4508 58.696L87.2208 60.026L97.8843 78.4128H104.184L106.891 83.1029Z" fill="url(#paint9_linear_168_206)"></path><path d="M147.981 45.793L132.348 72.8833H101.081L90.4408 54.4498L89.6708 53.1431L92.4708 48.3597L93.1942 49.6431L103.834 68.0766H129.571L142.428 45.793L129.571 23.5095H103.834L100.288 29.6695L100.078 30.0195L88.1774 50.4597L88.1541 50.5064L82.2274 60.6798L82.204 60.6565L69.2539 83.1034H63.8872L79.544 56.0131L85.4241 45.793L85.5407 45.6063L88.1074 41.1496L89.6241 38.5363L90.4408 37.1363L101.081 18.7028H132.348L147.981 45.793Z" fill="url(#paint10_linear_168_206)"></path><path d="M81.4106 67.283V67.3063L79.684 70.2697L81.4106 67.283Z" fill="#231B3F"></path><path d="M86.4273 58.5798L86.4738 58.6496L86.4506 58.6961H86.4273L86.4041 58.6263L86.4273 58.5798Z" fill="#231B3F"></path><path d="M89.6702 53.1423L89.647 53.2119L89.5774 53.1191L89.6238 53.0496L89.6702 53.1423Z" fill="#231B3F"></path><path d="M138.228 8.48291H95.1539L60.5736 68.0768H34.86L22.0032 45.7933L34.86 23.5097H60.5736L72.0771 43.4366L74.8304 38.6299L74.7837 38.5365L63.327 18.7263H32.06L16.4265 45.8166L32.06 72.9068H63.327L97.8606 13.2196H135.521L154.351 45.8399L135.521 78.4602H104.184L106.891 83.1503H138.228L159.765 45.8399L138.228 8.52958V8.48291Z" fill="url(#paint11_linear_168_206)"></path><path d="M71.8207 4.889L71.004 6.28901L70.7707 5.86901H24.6636L0.816675 47.1927L0 45.7927L23.8702 4.46899H71.564L71.774 4.819L71.8207 4.889Z" fill="url(#paint12_linear_168_206)"></path><path d="M207.965 3.39729H229.626L252.508 59.2018H253.482L276.364 3.37915H298.03V86.4671H280.992V32.4035H280.299L258.796 86.0772H247.203L225.691 32.1995H224.988V86.4852H207.965V3.39729Z" fill="#1C1C1C"></path><path d="M312.18 86.4847V24.1654H329.462V86.4847H312.18Z" fill="#1C1C1C"></path><path d="M360.59 50.4563V86.4851H343.316V24.1658H359.787V35.1734H360.517C361.833 31.6242 364.27 28.6003 367.458 26.5595C370.698 24.4257 374.627 23.3573 379.245 23.3542C383.571 23.3542 387.349 24.3018 390.58 26.1968C393.82 28.1115 396.43 30.9324 398.087 34.312C399.874 37.7969 400.767 41.9618 400.767 46.8067V86.4851H383.471V49.8896C383.498 46.0783 382.525 43.1028 380.551 40.9629C378.578 38.823 375.857 37.741 372.391 37.7168C370.24 37.6752 368.116 38.1922 366.225 39.2174C364.445 40.2412 363.006 41.7658 362.086 43.6015C361.061 45.7389 360.548 48.0861 360.59 50.4563Z" fill="#1C1C1C"></path><path d="M437.34 87.5006C432.786 87.5532 428.315 86.2838 424.469 83.8464C420.657 81.3862 417.635 77.7759 415.401 73.0156C413.168 68.2553 412.059 62.3857 412.074 55.407C412.074 48.268 413.224 42.332 415.524 37.5988C417.824 32.8657 420.879 29.3083 424.691 26.9267C428.472 24.5624 432.848 23.3233 437.308 23.3542C440.799 23.3542 443.706 23.9496 446.031 25.1404C448.218 26.1749 450.156 27.6705 451.711 29.5244C453.05 31.0665 454.17 32.7858 455.039 34.6338H455.565V3.39709H472.793V86.485H455.751V76.511H455.021C454.116 78.3815 452.955 80.1165 451.571 81.6658C449.976 83.4431 448.027 84.8669 445.849 85.8458C443.528 86.9459 440.691 87.4975 437.34 87.5006ZM442.816 73.7455C445.36 73.8262 447.854 73.0254 449.875 71.4787C451.932 69.7826 453.477 67.5494 454.341 65.0273C455.452 61.9177 455.989 58.6316 455.923 55.3299C455.99 52.0447 455.468 48.7741 454.382 45.6732C453.354 42.9531 451.865 40.8374 449.916 39.3262C447.868 37.8048 445.366 37.0189 442.816 37.0956C439.978 37.0956 437.584 37.8663 435.635 39.4078C433.592 41.0903 432.061 43.3109 431.215 45.8183C430.162 48.8703 429.654 52.0837 429.714 55.3117C429.656 58.5796 430.163 61.8329 431.215 64.9276C432.076 67.4571 433.603 69.7077 435.635 71.4424C437.584 72.9778 439.978 73.7455 442.816 73.7455Z" fill="#1C1C1C"></path><path d="M490.175 86.485V3.39709H500.235V40.3961H544.537V3.39709H554.584V86.485H544.519V49.3092H500.235V86.485H490.175Z" fill="#1C1C1C"></path><path d="M579.614 109.851C578.157 109.868 576.701 109.733 575.271 109.448C574.366 109.31 573.48 109.065 572.633 108.718L575.067 100.276C577.073 100.834 579.16 101.049 581.237 100.911C583.061 100.727 584.752 99.8744 585.984 98.517C587.39 97.1056 588.674 94.8191 589.838 91.6576L591.619 86.7885L568.579 24.1654H578.962L596.189 73.8268H596.838L614.038 24.1654H624.402L597.953 95.5702C596.942 98.4663 595.446 101.169 593.528 103.563C591.892 105.609 589.792 107.236 587.403 108.31C584.946 109.37 582.291 109.896 579.614 109.851Z" fill="#1C1C1C"></path><path d="M688 24.1654L664.956 86.4847H655.231L632.173 24.1654H642.559L659.765 73.8268H660.413L677.618 24.1654H688Z" fill="#1C1C1C"></path><path d="M325.408 0H316.237L311.653 7.9384L316.237 15.8768H325.408L329.992 7.9384L325.408 0Z" fill="#1C1C1C"></path><defs><linearGradient id="paint0_linear_168_206" x1="6.69661" y1="59.9096" x2="34.6969" y2="29.296" gradientUnits="userSpaceOnUse"><stop stop-color="#6C45DE"></stop><stop offset="0.2" stop-color="#7E5CF4"></stop><stop offset="0.5" stop-color="#2DB9FF"></stop><stop offset="0.8" stop-color="#DDFCB8"></stop><stop offset="1" stop-color="#FDE99D"></stop></linearGradient><linearGradient id="paint1_linear_168_206" x1="10.6867" y1="60.7267" x2="66.8972" y2="36.2965" gradientUnits="userSpaceOnUse"><stop stop-color="#8A52FC"></stop><stop offset="0.3" stop-color="#4EC4FD"></stop><stop offset="0.6" stop-color="#49D9FA"></stop><stop offset="1" stop-color="#49D9FA"></stop></linearGradient><linearGradient id="paint2_linear_168_206" x1="77.0706" y1="61.2627" x2="83.184" y2="62.546" gradientUnits="userSpaceOnUse"><stop offset="0.3" stop-color="#6D46DF"></stop><stop offset="0.7" stop-color="#A0FFF8"></stop><stop offset="0.8" stop-color="#C2FAEB"></stop><stop offset="0.9" stop-color="#E3F6DF"></stop><stop offset="1" stop-color="#FFF3D6"></stop></linearGradient><linearGradient id="paint3_linear_168_206" x1="81.271" y1="75.2163" x2="167.978" y2="93.1365" gradientUnits="userSpaceOnUse"><stop offset="0.3" stop-color="#6D46DF"></stop><stop offset="0.7" stop-color="#A0FFF8"></stop><stop offset="0.8" stop-color="#C2FAEB"></stop><stop offset="0.9" stop-color="#E3F6DF"></stop><stop offset="1" stop-color="#FFF3D6"></stop></linearGradient><linearGradient id="paint4_linear_168_206" x1="137.364" y1="-1.7144" x2="78.9838" y2="17.3491" gradientUnits="userSpaceOnUse"><stop stop-color="#33D4CE"></stop><stop offset="0.4" stop-color="#FF3A88"></stop><stop offset="0.7" stop-color="#CA2685"></stop><stop offset="1" stop-color="#981F65"></stop></linearGradient><linearGradient id="paint5_linear_168_206" x1="62.8139" y1="20.7797" x2="78.5407" y2="20.7797" gradientUnits="userSpaceOnUse"><stop stop-color="#49D9FA"></stop><stop offset="0.4" stop-color="#8EFFF2"></stop><stop offset="1" stop-color="#FDE99D"></stop></linearGradient><linearGradient id="paint6_linear_168_206" x1="24.3601" y1="77.1997" x2="82.204" y2="77.1997" gradientUnits="userSpaceOnUse"><stop stop-color="#6C45DE"></stop><stop offset="0.2" stop-color="#7E5CF4"></stop><stop offset="0.5" stop-color="#2DB9FF"></stop><stop offset="0.8" stop-color="#DDFCB8"></stop><stop offset="1" stop-color="#FDE99D"></stop></linearGradient><linearGradient id="paint7_linear_168_206" x1="71.0042" y1="15.3194" x2="83.0443" y2="15.3194" gradientUnits="userSpaceOnUse"><stop stop-color="#FDE99D"></stop><stop offset="0.5" stop-color="#DDFCB8"></stop><stop offset="1" stop-color="#B3FFE9"></stop></linearGradient><linearGradient id="paint8_linear_168_206" x1="142.731" y1="20.2893" x2="154.748" y2="20.2893" gradientUnits="userSpaceOnUse"><stop stop-color="#DDFCB8"></stop><stop offset="1" stop-color="#14C9D5"></stop></linearGradient><linearGradient id="paint9_linear_168_206" x1="81.3175" y1="55.2893" x2="103.808" y2="81.8272" gradientUnits="userSpaceOnUse"><stop stop-color="#981F65"></stop><stop offset="0.3" stop-color="#CA2685"></stop><stop offset="0.804245" stop-color="#FF7F1B"></stop><stop offset="0.943649" stop-color="#FDD686"></stop></linearGradient><linearGradient id="paint10_linear_168_206" x1="86.5208" y1="91.5268" x2="127.448" y2="29.5295" gradientUnits="userSpaceOnUse"><stop stop-color="#49D9FA"></stop><stop offset="0.2" stop-color="#8851F3"></stop><stop offset="0.5" stop-color="#6C39D3"></stop><stop offset="1" stop-color="#49D9FA"></stop></linearGradient><linearGradient id="paint11_linear_168_206" x1="33.9733" y1="80.4669" x2="145.414" y2="16.113" gradientUnits="userSpaceOnUse"><stop stop-color="#F03585"></stop><stop offset="0.1" stop-color="#F73787"></stop><stop offset="0.2" stop-color="#F93888"></stop><stop offset="0.3" stop-color="#FB5A54"></stop><stop offset="0.4" stop-color="#FF8119"></stop><stop offset="0.5" stop-color="#FDE99D"></stop><stop offset="0.66275" stop-color="#F93888"></stop><stop offset="0.825795" stop-color="#7942E2"></stop><stop offset="0.954475" stop-color="#3AD7CC"></stop><stop offset="1" stop-color="#14C9D5"></stop></linearGradient><linearGradient id="paint12_linear_168_206" x1="0" y1="25.8425" x2="71.8207" y2="25.8425" gradientUnits="userSpaceOnUse"><stop stop-color="#6C45DE"></stop><stop offset="0.2" stop-color="#7E5CF4"></stop><stop offset="0.5" stop-color="#2DB9FF"></stop><stop offset="0.8" stop-color="#DDFCB8"></stop><stop offset="1" stop-color="#FDE99D"></stop></linearGradient></defs></svg> 